<mxfile host="app.diagrams.net" modified="2024-05-28T22:58:18.146Z" agent="Mozilla/5.0 (Windows NT 10.0; Win64; x64) AppleWebKit/537.36 (KHTML, like Gecko) Chrome/124.0.0.0 Safari/537.36 OPR/110.0.0.0" etag="pfVTmwtm95q2GoVfL9cL" version="24.4.9" type="device" pages="3">
  <diagram name="Page-1" id="8FTzDNvuM8sQC45usiKm">
    <mxGraphModel dx="1685" dy="869" grid="1" gridSize="10" guides="1" tooltips="1" connect="1" arrows="1" fold="1" page="1" pageScale="1" pageWidth="850" pageHeight="1100" math="0" shadow="0">
      <root>
        <mxCell id="0" />
        <mxCell id="1" parent="0" />
        <mxCell id="CszQ9GpSS3QGuANNsZSQ-55" value="&lt;font style=&quot;font-size: 15px;&quot;&gt;Detection radius&lt;/font&gt;" style="ellipse;whiteSpace=wrap;html=1;aspect=fixed;shadow=0;fillColor=#fad7ac;sketch=1;curveFitting=1;jiggle=2;strokeColor=#b46504;" parent="1" vertex="1">
          <mxGeometry x="527.5" y="615" width="225" height="225" as="geometry" />
        </mxCell>
        <mxCell id="y4vut1xwsYRLtzIjSQgU-1" value="" style="rounded=0;whiteSpace=wrap;html=1;" parent="1" vertex="1">
          <mxGeometry x="40" y="800" width="800" height="40" as="geometry" />
        </mxCell>
        <mxCell id="CszQ9GpSS3QGuANNsZSQ-2" value="" style="rounded=0;whiteSpace=wrap;html=1;rotation=-90;" parent="1" vertex="1">
          <mxGeometry x="440" y="400" width="840" height="40" as="geometry" />
        </mxCell>
        <mxCell id="CszQ9GpSS3QGuANNsZSQ-3" value="" style="rounded=0;whiteSpace=wrap;html=1;" parent="1" vertex="1">
          <mxGeometry x="40" width="680" height="40" as="geometry" />
        </mxCell>
        <mxCell id="CszQ9GpSS3QGuANNsZSQ-4" value="" style="rounded=0;whiteSpace=wrap;html=1;rotation=-90;" parent="1" vertex="1">
          <mxGeometry x="-400" y="400" width="840" height="40" as="geometry" />
        </mxCell>
        <mxCell id="CszQ9GpSS3QGuANNsZSQ-5" value="" style="rounded=0;whiteSpace=wrap;html=1;" parent="1" vertex="1">
          <mxGeometry x="800" width="40" height="40" as="geometry" />
        </mxCell>
        <mxCell id="CszQ9GpSS3QGuANNsZSQ-6" value="&lt;font style=&quot;font-size: 21px;&quot;&gt;Exit&lt;/font&gt;" style="text;html=1;align=center;verticalAlign=middle;whiteSpace=wrap;rounded=0;" parent="1" vertex="1">
          <mxGeometry x="720" width="80" height="40" as="geometry" />
        </mxCell>
        <mxCell id="CszQ9GpSS3QGuANNsZSQ-7" value="" style="rounded=0;whiteSpace=wrap;html=1;rotation=-90;" parent="1" vertex="1">
          <mxGeometry x="339.38" y="60.01" width="80" height="40" as="geometry" />
        </mxCell>
        <mxCell id="CszQ9GpSS3QGuANNsZSQ-8" value="" style="rounded=0;whiteSpace=wrap;html=1;" parent="1" vertex="1">
          <mxGeometry x="200" y="200" width="400" height="40" as="geometry" />
        </mxCell>
        <mxCell id="CszQ9GpSS3QGuANNsZSQ-10" value="" style="rounded=0;whiteSpace=wrap;html=1;" parent="1" vertex="1">
          <mxGeometry x="690" y="200" width="150" height="40" as="geometry" />
        </mxCell>
        <mxCell id="CszQ9GpSS3QGuANNsZSQ-11" value="" style="rounded=0;whiteSpace=wrap;html=1;" parent="1" vertex="1">
          <mxGeometry x="40" y="400" width="480" height="40" as="geometry" />
        </mxCell>
        <mxCell id="CszQ9GpSS3QGuANNsZSQ-12" value="" style="rounded=0;whiteSpace=wrap;html=1;" parent="1" vertex="1">
          <mxGeometry x="640" y="360" width="200" height="80" as="geometry" />
        </mxCell>
        <mxCell id="CszQ9GpSS3QGuANNsZSQ-13" value="Actor" style="shape=umlActor;verticalLabelPosition=bottom;verticalAlign=top;html=1;outlineConnect=0;fillColor=#f8cecc;strokeColor=#b85450;gradientColor=#ea6b66;" parent="1" vertex="1">
          <mxGeometry x="520" y="90.63" width="40" height="109.37" as="geometry" />
        </mxCell>
        <mxCell id="CszQ9GpSS3QGuANNsZSQ-17" value="" style="rounded=1;whiteSpace=wrap;html=1;fillColor=#f5f5f5;strokeColor=#666666;gradientColor=#b3b3b3;" parent="1" vertex="1">
          <mxGeometry x="40" y="280" width="100" height="40" as="geometry" />
        </mxCell>
        <mxCell id="CszQ9GpSS3QGuANNsZSQ-18" value="" style="rounded=1;whiteSpace=wrap;html=1;fillColor=#f5f5f5;strokeColor=#666666;gradientColor=#b3b3b3;" parent="1" vertex="1">
          <mxGeometry x="720" y="120" width="80" height="40" as="geometry" />
        </mxCell>
        <mxCell id="CszQ9GpSS3QGuANNsZSQ-20" value="" style="rounded=1;whiteSpace=wrap;html=1;fillColor=#f5f5f5;strokeColor=#666666;gradientColor=#b3b3b3;" parent="1" vertex="1">
          <mxGeometry x="590" y="520" width="120" height="40" as="geometry" />
        </mxCell>
        <mxCell id="CszQ9GpSS3QGuANNsZSQ-21" value="Actor" style="shape=umlActor;verticalLabelPosition=bottom;verticalAlign=top;html=1;outlineConnect=0;fillColor=none;strokeColor=default;shadow=0;" parent="1" vertex="1">
          <mxGeometry x="80" y="730" width="40" height="70" as="geometry" />
        </mxCell>
        <mxCell id="CszQ9GpSS3QGuANNsZSQ-22" value="Actor" style="shape=umlActor;verticalLabelPosition=bottom;verticalAlign=top;html=1;outlineConnect=0;fillColor=#f8cecc;strokeColor=#b85450;gradientColor=#ea6b66;" parent="1" vertex="1">
          <mxGeometry x="620" y="690.63" width="40" height="109.37" as="geometry" />
        </mxCell>
        <mxCell id="CszQ9GpSS3QGuANNsZSQ-23" value="" style="triangle;whiteSpace=wrap;html=1;rotation=-90;" parent="1" vertex="1">
          <mxGeometry x="360" y="680" width="160" height="80" as="geometry" />
        </mxCell>
        <mxCell id="CszQ9GpSS3QGuANNsZSQ-24" value="Rubblle" style="text;html=1;align=center;verticalAlign=middle;whiteSpace=wrap;rounded=0;" parent="1" vertex="1">
          <mxGeometry x="410" y="760" width="60" height="30" as="geometry" />
        </mxCell>
        <mxCell id="CszQ9GpSS3QGuANNsZSQ-25" value="" style="rounded=1;whiteSpace=wrap;html=1;fillColor=#f5f5f5;strokeColor=#666666;gradientColor=#b3b3b3;" parent="1" vertex="1">
          <mxGeometry x="160" y="520" width="130" height="40" as="geometry" />
        </mxCell>
        <mxCell id="CszQ9GpSS3QGuANNsZSQ-26" value="" style="rounded=1;whiteSpace=wrap;html=1;fillColor=#f5f5f5;strokeColor=#666666;gradientColor=#b3b3b3;" parent="1" vertex="1">
          <mxGeometry x="375" y="520" width="130" height="40" as="geometry" />
        </mxCell>
        <mxCell id="CszQ9GpSS3QGuANNsZSQ-27" value="" style="rounded=0;whiteSpace=wrap;html=1;" parent="1" vertex="1">
          <mxGeometry x="40" y="640" width="120" height="40" as="geometry" />
        </mxCell>
        <mxCell id="CszQ9GpSS3QGuANNsZSQ-30" value="" style="rounded=0;whiteSpace=wrap;html=1;rotation=-90;" parent="1" vertex="1">
          <mxGeometry x="359.07" y="159.69" width="40.62" height="40" as="geometry" />
        </mxCell>
        <mxCell id="CszQ9GpSS3QGuANNsZSQ-33" style="edgeStyle=orthogonalEdgeStyle;rounded=0;orthogonalLoop=1;jettySize=auto;html=1;" parent="1" source="CszQ9GpSS3QGuANNsZSQ-32" target="CszQ9GpSS3QGuANNsZSQ-13" edge="1">
          <mxGeometry relative="1" as="geometry">
            <Array as="points">
              <mxPoint x="430" y="140" />
              <mxPoint x="430" y="140" />
            </Array>
          </mxGeometry>
        </mxCell>
        <mxCell id="CszQ9GpSS3QGuANNsZSQ-32" value="" style="shape=cylinder3;whiteSpace=wrap;html=1;boundedLbl=1;backgroundOutline=1;size=15;fillColor=#fad9d5;strokeColor=#ae4132;sketch=1;curveFitting=1;jiggle=2;" parent="1" vertex="1">
          <mxGeometry x="220" y="50" width="60" height="150" as="geometry" />
        </mxCell>
        <mxCell id="CszQ9GpSS3QGuANNsZSQ-34" value="&lt;font style=&quot;font-size: 16px;&quot;&gt;Shoot red&amp;nbsp;&lt;/font&gt;" style="text;html=1;align=center;verticalAlign=middle;whiteSpace=wrap;rounded=0;" parent="1" vertex="1">
          <mxGeometry x="290" y="120" width="90" height="30" as="geometry" />
        </mxCell>
        <mxCell id="CszQ9GpSS3QGuANNsZSQ-39" value="&lt;h1 style=&quot;margin-top: 0px;&quot;&gt;Level 1&lt;/h1&gt;&lt;p&gt;&lt;br&gt;&lt;/p&gt;" style="text;html=1;whiteSpace=wrap;overflow=hidden;rounded=0;" parent="1" vertex="1">
          <mxGeometry x="40" width="180" height="40" as="geometry" />
        </mxCell>
        <mxCell id="CszQ9GpSS3QGuANNsZSQ-40" value="&lt;font style=&quot;font-size: 18px;&quot;&gt;TUTORIAL WINDOW:&lt;br&gt;WASD TO MOVE&lt;br&gt;SPACE TO JUMP&lt;/font&gt;" style="text;html=1;align=center;verticalAlign=middle;whiteSpace=wrap;rounded=0;" parent="1" vertex="1">
          <mxGeometry x="180" y="610" width="190" height="110" as="geometry" />
        </mxCell>
        <mxCell id="CszQ9GpSS3QGuANNsZSQ-41" value="&lt;font style=&quot;font-size: 18px;&quot;&gt;Press trigger 1 to shoot&lt;/font&gt;" style="text;html=1;align=center;verticalAlign=middle;whiteSpace=wrap;rounded=0;" parent="1" vertex="1">
          <mxGeometry x="70" y="80" width="90" height="80" as="geometry" />
        </mxCell>
        <mxCell id="CszQ9GpSS3QGuANNsZSQ-54" style="edgeStyle=orthogonalEdgeStyle;rounded=0;orthogonalLoop=1;jettySize=auto;html=1;" parent="1" source="CszQ9GpSS3QGuANNsZSQ-42" target="CszQ9GpSS3QGuANNsZSQ-46" edge="1">
          <mxGeometry relative="1" as="geometry" />
        </mxCell>
        <mxCell id="CszQ9GpSS3QGuANNsZSQ-42" value="" style="rounded=0;whiteSpace=wrap;html=1;" parent="1" vertex="1">
          <mxGeometry x="970" y="159.69" width="120" height="40" as="geometry" />
        </mxCell>
        <mxCell id="CszQ9GpSS3QGuANNsZSQ-53" style="edgeStyle=orthogonalEdgeStyle;rounded=0;orthogonalLoop=1;jettySize=auto;html=1;" parent="1" source="CszQ9GpSS3QGuANNsZSQ-43" target="CszQ9GpSS3QGuANNsZSQ-47" edge="1">
          <mxGeometry relative="1" as="geometry" />
        </mxCell>
        <mxCell id="CszQ9GpSS3QGuANNsZSQ-43" value="" style="rounded=1;whiteSpace=wrap;html=1;fillColor=#f5f5f5;strokeColor=#666666;gradientColor=#b3b3b3;" parent="1" vertex="1">
          <mxGeometry x="970" y="280" width="120" height="40" as="geometry" />
        </mxCell>
        <mxCell id="CszQ9GpSS3QGuANNsZSQ-52" style="edgeStyle=orthogonalEdgeStyle;rounded=0;orthogonalLoop=1;jettySize=auto;html=1;" parent="1" source="CszQ9GpSS3QGuANNsZSQ-44" target="CszQ9GpSS3QGuANNsZSQ-48" edge="1">
          <mxGeometry relative="1" as="geometry" />
        </mxCell>
        <mxCell id="CszQ9GpSS3QGuANNsZSQ-44" value="Actor" style="shape=umlActor;verticalLabelPosition=bottom;verticalAlign=top;html=1;outlineConnect=0;fillColor=#f8cecc;strokeColor=#b85450;gradientColor=#ea6b66;" parent="1" vertex="1">
          <mxGeometry x="1010" y="360" width="40" height="109.37" as="geometry" />
        </mxCell>
        <mxCell id="CszQ9GpSS3QGuANNsZSQ-51" style="edgeStyle=orthogonalEdgeStyle;rounded=0;orthogonalLoop=1;jettySize=auto;html=1;" parent="1" source="CszQ9GpSS3QGuANNsZSQ-45" target="CszQ9GpSS3QGuANNsZSQ-49" edge="1">
          <mxGeometry relative="1" as="geometry" />
        </mxCell>
        <mxCell id="CszQ9GpSS3QGuANNsZSQ-45" value="Actor" style="shape=umlActor;verticalLabelPosition=bottom;verticalAlign=top;html=1;outlineConnect=0;fillColor=none;strokeColor=default;shadow=0;" parent="1" vertex="1">
          <mxGeometry x="1010" y="520" width="40" height="70" as="geometry" />
        </mxCell>
        <mxCell id="CszQ9GpSS3QGuANNsZSQ-46" value="&lt;font style=&quot;font-size: 17px;&quot;&gt;Solid Blocks&lt;/font&gt;" style="text;html=1;align=center;verticalAlign=middle;whiteSpace=wrap;rounded=0;" parent="1" vertex="1">
          <mxGeometry x="1160" y="164.69" width="120" height="30" as="geometry" />
        </mxCell>
        <mxCell id="CszQ9GpSS3QGuANNsZSQ-47" value="&lt;font style=&quot;font-size: 17px;&quot;&gt;Platforms&lt;/font&gt;" style="text;html=1;align=center;verticalAlign=middle;whiteSpace=wrap;rounded=0;" parent="1" vertex="1">
          <mxGeometry x="1160" y="285" width="120" height="30" as="geometry" />
        </mxCell>
        <mxCell id="CszQ9GpSS3QGuANNsZSQ-48" value="&lt;font style=&quot;font-size: 17px;&quot;&gt;Enemies&lt;/font&gt;" style="text;html=1;align=center;verticalAlign=middle;whiteSpace=wrap;rounded=0;" parent="1" vertex="1">
          <mxGeometry x="1150" y="399.69" width="120" height="30" as="geometry" />
        </mxCell>
        <mxCell id="CszQ9GpSS3QGuANNsZSQ-49" value="&lt;font style=&quot;font-size: 17px;&quot;&gt;Player&lt;/font&gt;" style="text;html=1;align=center;verticalAlign=middle;whiteSpace=wrap;rounded=0;" parent="1" vertex="1">
          <mxGeometry x="1150" y="540" width="120" height="30" as="geometry" />
        </mxCell>
        <mxCell id="CszQ9GpSS3QGuANNsZSQ-56" value="&lt;font style=&quot;font-size: 15px;&quot;&gt;Detection radius&lt;/font&gt;" style="ellipse;whiteSpace=wrap;html=1;aspect=fixed;shadow=0;fillColor=#fad7ac;sketch=1;curveFitting=1;jiggle=2;strokeColor=#b46504;" parent="1" vertex="1">
          <mxGeometry x="427.5" y="27.5" width="225" height="225" as="geometry" />
        </mxCell>
        <mxCell id="W5gDnAnbPjiJLmBUVBXt-1" value="&lt;span style=&quot;color: rgb(0, 0, 0); font-family: Helvetica; font-size: 18px; font-style: normal; font-variant-ligatures: normal; font-variant-caps: normal; font-weight: 400; letter-spacing: normal; orphans: 2; text-align: center; text-indent: 0px; text-transform: none; widows: 2; word-spacing: 0px; -webkit-text-stroke-width: 0px; white-space: normal; background-color: rgb(251, 251, 251); text-decoration-thickness: initial; text-decoration-style: initial; text-decoration-color: initial; display: inline !important; float: none;&quot;&gt;Shoot&lt;/span&gt;" style="text;whiteSpace=wrap;html=1;" vertex="1" parent="1">
          <mxGeometry x="225" y="100.01" width="50" height="29.99" as="geometry" />
        </mxCell>
      </root>
    </mxGraphModel>
  </diagram>
  <diagram id="qVbyO26aUY9yAsBZumLY" name="Page-2">
    <mxGraphModel dx="1432" dy="739" grid="1" gridSize="10" guides="1" tooltips="1" connect="1" arrows="1" fold="1" page="1" pageScale="1" pageWidth="850" pageHeight="1100" math="0" shadow="0">
      <root>
        <mxCell id="0" />
        <mxCell id="1" parent="0" />
        <mxCell id="zTUaWO1CsLKPoRh33d7K-1" value="" style="rounded=0;whiteSpace=wrap;html=1;" parent="1" vertex="1">
          <mxGeometry x="40" y="800" width="670" height="40" as="geometry" />
        </mxCell>
        <mxCell id="zTUaWO1CsLKPoRh33d7K-2" value="" style="rounded=0;whiteSpace=wrap;html=1;rotation=-90;" parent="1" vertex="1">
          <mxGeometry x="440" y="400" width="840" height="40" as="geometry" />
        </mxCell>
        <mxCell id="zTUaWO1CsLKPoRh33d7K-3" value="" style="rounded=0;whiteSpace=wrap;html=1;" parent="1" vertex="1">
          <mxGeometry x="40" width="360" height="40" as="geometry" />
        </mxCell>
        <mxCell id="zTUaWO1CsLKPoRh33d7K-4" value="" style="rounded=0;whiteSpace=wrap;html=1;rotation=-90;" parent="1" vertex="1">
          <mxGeometry x="-400" y="400" width="840" height="40" as="geometry" />
        </mxCell>
        <mxCell id="zTUaWO1CsLKPoRh33d7K-5" value="" style="rounded=0;whiteSpace=wrap;html=1;" parent="1" vertex="1">
          <mxGeometry x="480" width="360" height="40" as="geometry" />
        </mxCell>
        <mxCell id="HPD71jSSJwNRyIHD9HhZ-1" value="&lt;h1 style=&quot;margin-top: 0px;&quot;&gt;Level 2&lt;/h1&gt;&lt;div&gt;&lt;br&gt;&lt;/div&gt;" style="text;html=1;whiteSpace=wrap;overflow=hidden;rounded=0;" parent="1" vertex="1">
          <mxGeometry x="40" width="180" height="40" as="geometry" />
        </mxCell>
        <mxCell id="py-dPy5ktfWFGSbdnnJj-1" value="&lt;font style=&quot;font-size: 21px;&quot;&gt;Exit&lt;/font&gt;" style="text;html=1;align=center;verticalAlign=middle;whiteSpace=wrap;rounded=0;" parent="1" vertex="1">
          <mxGeometry x="400" width="80" height="40" as="geometry" />
        </mxCell>
        <mxCell id="dycgMR121BdtzM1yIcLp-1" value="" style="rounded=1;whiteSpace=wrap;html=1;fillColor=#f5f5f5;strokeColor=#666666;gradientColor=#b3b3b3;" parent="1" vertex="1">
          <mxGeometry x="220" y="600" width="100" height="40" as="geometry" />
        </mxCell>
        <mxCell id="dycgMR121BdtzM1yIcLp-2" value="" style="rounded=0;whiteSpace=wrap;html=1;" parent="1" vertex="1">
          <mxGeometry x="800" y="800" width="40" height="40" as="geometry" />
        </mxCell>
        <mxCell id="ESfaqWXl8yxCb0UThzvr-1" value="" style="rounded=0;whiteSpace=wrap;html=1;" parent="1" vertex="1">
          <mxGeometry x="710" y="800" width="90" height="40" as="geometry" />
        </mxCell>
        <mxCell id="2X6sF0WocJp9ePP195fg-1" value="Actor" style="shape=umlActor;verticalLabelPosition=bottom;verticalAlign=top;html=1;outlineConnect=0;fillColor=none;strokeColor=default;shadow=0;" parent="1" vertex="1">
          <mxGeometry x="735" y="730" width="40" height="70" as="geometry" />
        </mxCell>
        <mxCell id="2X6sF0WocJp9ePP195fg-2" value="" style="rounded=1;whiteSpace=wrap;html=1;fillColor=#f5f5f5;strokeColor=#666666;gradientColor=#b3b3b3;" parent="1" vertex="1">
          <mxGeometry x="390" y="690" width="100" height="40" as="geometry" />
        </mxCell>
        <mxCell id="2X6sF0WocJp9ePP195fg-3" value="" style="rounded=1;whiteSpace=wrap;html=1;fillColor=#f5f5f5;strokeColor=#666666;gradientColor=#b3b3b3;" parent="1" vertex="1">
          <mxGeometry x="560" y="600" width="100" height="40" as="geometry" />
        </mxCell>
        <mxCell id="gswvvjSvo74UUcyaMJbd-1" value="" style="rounded=1;whiteSpace=wrap;html=1;fillColor=#f5f5f5;strokeColor=#666666;gradientColor=#b3b3b3;" parent="1" vertex="1">
          <mxGeometry x="320" y="510" width="240" height="40" as="geometry" />
        </mxCell>
        <mxCell id="gswvvjSvo74UUcyaMJbd-2" value="" style="rounded=1;whiteSpace=wrap;html=1;fillColor=#f5f5f5;strokeColor=#666666;gradientColor=#b3b3b3;" parent="1" vertex="1">
          <mxGeometry x="70" y="267.5" width="100" height="40" as="geometry" />
        </mxCell>
        <mxCell id="gswvvjSvo74UUcyaMJbd-3" value="" style="rounded=1;whiteSpace=wrap;html=1;fillColor=#f5f5f5;strokeColor=#666666;gradientColor=#b3b3b3;" parent="1" vertex="1">
          <mxGeometry x="210" y="360.63" width="100" height="40" as="geometry" />
        </mxCell>
        <mxCell id="E7TswgdaqP64ouINd_bJ-1" value="&lt;font style=&quot;font-size: 15px;&quot;&gt;Detection radius&lt;/font&gt;" style="ellipse;whiteSpace=wrap;html=1;aspect=fixed;shadow=0;fillColor=#fad7ac;sketch=1;curveFitting=1;jiggle=2;strokeColor=#b46504;" parent="1" vertex="1">
          <mxGeometry x="325" y="325" width="225" height="225" as="geometry" />
        </mxCell>
        <mxCell id="E7TswgdaqP64ouINd_bJ-2" value="Actor" style="shape=umlActor;verticalLabelPosition=bottom;verticalAlign=top;html=1;outlineConnect=0;fillColor=#f8cecc;strokeColor=#b85450;gradientColor=#ea6b66;" parent="1" vertex="1">
          <mxGeometry x="417.5" y="400.63" width="40" height="109.37" as="geometry" />
        </mxCell>
        <mxCell id="PSTLotIkVV0KnsmYTcFG-1" value="" style="shape=cylinder3;whiteSpace=wrap;html=1;boundedLbl=1;backgroundOutline=1;size=15;fillColor=#fad9d5;strokeColor=#ae4132;sketch=1;curveFitting=1;jiggle=2;" parent="1" vertex="1">
          <mxGeometry x="590" y="40" width="60" height="360" as="geometry" />
        </mxCell>
        <mxCell id="PSTLotIkVV0KnsmYTcFG-3" value="" style="rounded=0;whiteSpace=wrap;html=1;" parent="1" vertex="1">
          <mxGeometry x="560" y="400" width="120" height="40" as="geometry" />
        </mxCell>
        <mxCell id="PSTLotIkVV0KnsmYTcFG-4" value="" style="rounded=1;whiteSpace=wrap;html=1;fillColor=#f5f5f5;strokeColor=#666666;gradientColor=#b3b3b3;" parent="1" vertex="1">
          <mxGeometry x="700" y="500" width="100" height="40" as="geometry" />
        </mxCell>
        <mxCell id="PSTLotIkVV0KnsmYTcFG-5" value="" style="rounded=1;whiteSpace=wrap;html=1;fillColor=#f5f5f5;strokeColor=#666666;gradientColor=#b3b3b3;" parent="1" vertex="1">
          <mxGeometry x="80" y="480" width="100" height="40" as="geometry" />
        </mxCell>
        <mxCell id="PSTLotIkVV0KnsmYTcFG-6" value="" style="rounded=1;whiteSpace=wrap;html=1;fillColor=#f5f5f5;strokeColor=#666666;gradientColor=#b3b3b3;" parent="1" vertex="1">
          <mxGeometry x="390" y="120" width="100" height="40" as="geometry" />
        </mxCell>
        <mxCell id="PSTLotIkVV0KnsmYTcFG-8" value="" style="shape=flexArrow;endArrow=classic;startArrow=classic;html=1;rounded=0;entryX=1.018;entryY=0.58;entryDx=0;entryDy=0;entryPerimeter=0;exitX=-0.001;exitY=0.58;exitDx=0;exitDy=0;exitPerimeter=0;" parent="1" source="E7TswgdaqP64ouINd_bJ-1" target="E7TswgdaqP64ouINd_bJ-1" edge="1">
          <mxGeometry width="100" height="100" relative="1" as="geometry">
            <mxPoint x="375" y="454.73" as="sourcePoint" />
            <mxPoint x="515" y="454.90999999999997" as="targetPoint" />
          </mxGeometry>
        </mxCell>
        <mxCell id="PSTLotIkVV0KnsmYTcFG-9" value="" style="rounded=1;whiteSpace=wrap;html=1;fillColor=#f5f5f5;strokeColor=#666666;gradientColor=#b3b3b3;" parent="1" vertex="1">
          <mxGeometry x="210" y="160" width="100" height="40" as="geometry" />
        </mxCell>
        <mxCell id="PSTLotIkVV0KnsmYTcFG-11" style="edgeStyle=orthogonalEdgeStyle;rounded=0;orthogonalLoop=1;jettySize=auto;html=1;entryX=0.5;entryY=0;entryDx=0;entryDy=0;" parent="1" source="PSTLotIkVV0KnsmYTcFG-10" target="E7TswgdaqP64ouINd_bJ-1" edge="1">
          <mxGeometry relative="1" as="geometry" />
        </mxCell>
        <mxCell id="PSTLotIkVV0KnsmYTcFG-10" value="&lt;span style=&quot;font-size: 18px;&quot;&gt;Enemy patrol&lt;br&gt;Killing it its optional but safer in order to beat the level&lt;/span&gt;" style="text;html=1;align=center;verticalAlign=middle;whiteSpace=wrap;rounded=0;" parent="1" vertex="1">
          <mxGeometry x="315" y="220" width="250" height="30" as="geometry" />
        </mxCell>
      </root>
    </mxGraphModel>
  </diagram>
  <diagram id="3uVMgDlhNpV39ke8E7uW" name="Page-3">
    <mxGraphModel dx="1685" dy="869" grid="1" gridSize="10" guides="1" tooltips="1" connect="1" arrows="1" fold="1" page="1" pageScale="1" pageWidth="850" pageHeight="1100" math="0" shadow="0">
      <root>
        <mxCell id="0" />
        <mxCell id="1" parent="0" />
        <mxCell id="Q1Jm_h45g6F5zIaHuGeu-1" value="" style="rounded=0;whiteSpace=wrap;html=1;" vertex="1" parent="1">
          <mxGeometry x="40" y="800" width="360" height="40" as="geometry" />
        </mxCell>
        <mxCell id="Q1Jm_h45g6F5zIaHuGeu-2" value="" style="rounded=0;whiteSpace=wrap;html=1;rotation=-90;" vertex="1" parent="1">
          <mxGeometry x="440" y="400" width="840" height="40" as="geometry" />
        </mxCell>
        <mxCell id="Q1Jm_h45g6F5zIaHuGeu-3" value="" style="rounded=0;whiteSpace=wrap;html=1;" vertex="1" parent="1">
          <mxGeometry x="40" width="680" height="40" as="geometry" />
        </mxCell>
        <mxCell id="Q1Jm_h45g6F5zIaHuGeu-4" value="" style="rounded=0;whiteSpace=wrap;html=1;rotation=-90;" vertex="1" parent="1">
          <mxGeometry x="-400" y="400" width="840" height="40" as="geometry" />
        </mxCell>
        <mxCell id="Q1Jm_h45g6F5zIaHuGeu-5" value="" style="rounded=0;whiteSpace=wrap;html=1;" vertex="1" parent="1">
          <mxGeometry x="800" width="40" height="40" as="geometry" />
        </mxCell>
        <mxCell id="Q1Jm_h45g6F5zIaHuGeu-6" value="&lt;font style=&quot;font-size: 21px;&quot;&gt;Exit&lt;/font&gt;" style="text;html=1;align=center;verticalAlign=middle;whiteSpace=wrap;rounded=0;" vertex="1" parent="1">
          <mxGeometry x="720" width="80" height="40" as="geometry" />
        </mxCell>
        <mxCell id="Q1Jm_h45g6F5zIaHuGeu-7" value="" style="rounded=0;whiteSpace=wrap;html=1;" vertex="1" parent="1">
          <mxGeometry x="480" y="800" width="360" height="40" as="geometry" />
        </mxCell>
        <mxCell id="Q1Jm_h45g6F5zIaHuGeu-8" value="" style="rounded=0;whiteSpace=wrap;html=1;" vertex="1" parent="1">
          <mxGeometry x="400" y="800" width="80" height="40" as="geometry" />
        </mxCell>
        <mxCell id="7IvdgoBjlVp1RMV8R1uj-1" value="" style="rounded=0;whiteSpace=wrap;html=1;rotation=-90;" vertex="1" parent="1">
          <mxGeometry x="220" y="540" width="240" height="40" as="geometry" />
        </mxCell>
        <mxCell id="7IvdgoBjlVp1RMV8R1uj-2" value="" style="rounded=0;whiteSpace=wrap;html=1;rotation=-90;" vertex="1" parent="1">
          <mxGeometry x="250" y="490" width="580" height="40" as="geometry" />
        </mxCell>
        <mxCell id="7IvdgoBjlVp1RMV8R1uj-3" value="" style="rounded=0;whiteSpace=wrap;html=1;rotation=-180;" vertex="1" parent="1">
          <mxGeometry x="40" y="510" width="280" height="40" as="geometry" />
        </mxCell>
        <mxCell id="Mhwlq_2OHpp8Qi677MLm-1" value="" style="shape=cylinder3;whiteSpace=wrap;html=1;boundedLbl=1;backgroundOutline=1;size=15;fillColor=#d5e8d4;strokeColor=#82b366;sketch=1;curveFitting=1;jiggle=2;" vertex="1" parent="1">
          <mxGeometry x="150" y="550" width="60" height="250" as="geometry" />
        </mxCell>
        <mxCell id="yQkWY2ZuVn-grc7pCOSu-1" value="&lt;font style=&quot;font-size: 15px;&quot;&gt;Detection radius&lt;/font&gt;" style="ellipse;whiteSpace=wrap;html=1;aspect=fixed;shadow=0;fillColor=#fad7ac;sketch=1;curveFitting=1;jiggle=2;strokeColor=#b46504;" vertex="1" parent="1">
          <mxGeometry x="590" y="580" width="225" height="225" as="geometry" />
        </mxCell>
        <mxCell id="yQkWY2ZuVn-grc7pCOSu-2" value="Actor" style="shape=umlActor;verticalLabelPosition=bottom;verticalAlign=top;html=1;outlineConnect=0;fillColor=#f8cecc;strokeColor=#b85450;gradientColor=#ea6b66;" vertex="1" parent="1">
          <mxGeometry x="682.5" y="655.63" width="40" height="109.37" as="geometry" />
        </mxCell>
        <mxCell id="Co0MKl0EVB30LPLzuhsY-1" value="" style="rounded=1;whiteSpace=wrap;html=1;fillColor=#f5f5f5;strokeColor=#666666;gradientColor=#b3b3b3;" vertex="1" parent="1">
          <mxGeometry x="670" y="510" width="90" height="40" as="geometry" />
        </mxCell>
        <mxCell id="Co0MKl0EVB30LPLzuhsY-2" value="" style="rounded=0;whiteSpace=wrap;html=1;rotation=-90;" vertex="1" parent="1">
          <mxGeometry x="524.38" y="200" width="356.25" height="40" as="geometry" />
        </mxCell>
        <mxCell id="Co0MKl0EVB30LPLzuhsY-3" value="" style="rounded=1;whiteSpace=wrap;html=1;fillColor=#f5f5f5;strokeColor=#666666;gradientColor=#b3b3b3;" vertex="1" parent="1">
          <mxGeometry x="770" y="240" width="60" height="40" as="geometry" />
        </mxCell>
        <mxCell id="Co0MKl0EVB30LPLzuhsY-4" value="" style="shape=cylinder3;whiteSpace=wrap;html=1;boundedLbl=1;backgroundOutline=1;size=15;fillColor=#d5e8d4;strokeColor=#82b366;sketch=1;curveFitting=1;jiggle=2;" vertex="1" parent="1">
          <mxGeometry x="672.5" y="400" width="60" height="110" as="geometry" />
        </mxCell>
        <mxCell id="Hrclo1lqWlLwWQZ9z-ZU-1" value="Actor" style="shape=umlActor;verticalLabelPosition=bottom;verticalAlign=top;html=1;outlineConnect=0;fillColor=none;strokeColor=default;shadow=0;" vertex="1" parent="1">
          <mxGeometry x="420" y="720" width="40" height="70" as="geometry" />
        </mxCell>
        <mxCell id="dFAEc2ifhg0AGMKrWaff-1" value="&lt;h1 style=&quot;margin-top: 0px;&quot;&gt;Level 3&lt;/h1&gt;" style="text;html=1;whiteSpace=wrap;overflow=hidden;rounded=0;" vertex="1" parent="1">
          <mxGeometry x="40" width="180" height="40" as="geometry" />
        </mxCell>
        <mxCell id="dFAEc2ifhg0AGMKrWaff-2" value="&lt;font style=&quot;font-size: 18px;&quot;&gt;Super Jump&lt;/font&gt;" style="text;html=1;align=center;verticalAlign=middle;whiteSpace=wrap;rounded=0;" vertex="1" parent="1">
          <mxGeometry x="150" y="610" width="60" height="30" as="geometry" />
        </mxCell>
      </root>
    </mxGraphModel>
  </diagram>
</mxfile>
